<svg width="351" height="309" viewBox="0 0 351 309" fill="none" xmlns="http://www.w3.org/2000/svg">
<g clip-path="url(#clip0_84_120)" filter="url(#filter0_d_84_120)">
<path d="M309.953 300.265C333.146 271.126 347 234.278 347 194.205C347 99.847 270.218 23.355 175.5 23.355C80.782 23.355 4 99.847 4 194.205C4 234.281 17.8542 271.129 41.0471 300.265H309.953Z" fill="#F13005" fill-opacity="0.06"/>
<path d="M305.096 261.515H274.733V300.353H305.096V261.515Z" fill="#FFA305"/>
<path d="M305.096 300.357V261.515H322.925L322.647 300.357H305.096Z" fill="#DE7F04"/>
<path d="M290.612 261.515H286.074V270.354H290.612V261.515Z" fill="#FFC766"/>
<path d="M260.72 300.357V261.515H274.733L274.515 300.357H260.72Z" fill="#DE7F04"/>
<path d="M276.398 231.216H253.902V261.515H276.398V231.216Z" fill="#DE7F04"/>
<path d="M256.531 261.515V231.216H238.806L239.04 261.515H256.531Z" fill="#FFA305"/>
<path d="M267.552 231.216H264.012V238.112H267.552V231.216Z" fill="#FFC766"/>
<path d="M313.846 231.216H291.35V261.515H313.846V231.216Z" fill="#FFA305"/>
<path d="M291.35 261.515V231.216H276.253L276.491 261.515H291.35Z" fill="#FFA305"/>
<path d="M313.846 231.216H300.351V261.515H313.846V231.216Z" fill="#DE7F04"/>
<path d="M261.458 261.515H230.005V300.353H261.458V261.515Z" fill="#FFA305"/>
<path d="M248 261.515H243.462V270.354H248V261.515Z" fill="#FFC766"/>
<path d="M289.915 231.216H286.374V238.112H289.915V231.216Z" fill="#FFC766"/>
<path d="M293.107 201.423H270.611V231.722H293.107V201.423Z" fill="#DE7F04"/>
<path d="M273.239 231.722V201.423H255.515L255.748 231.722H273.239Z" fill="#FFA305"/>
<path d="M284.261 201.423H280.721V208.319H284.261V201.423Z" fill="#FFC766"/>
<path d="M313.98 23.3982C314.006 15.2445 307.392 8.61396 299.208 8.58848C291.024 8.563 284.369 15.1522 284.344 23.3059C284.318 31.4596 290.932 38.0901 299.116 38.1156C307.299 38.1411 313.954 31.5519 313.98 23.3982Z" fill="#DBE6F1"/>
<path d="M241.609 14.793C239.34 1.39613 218.631 -4.65039 219.039 4.0925L124.117 4.64655C117.544 4.68349 112.213 10.5786 112.205 17.8144L112.009 266.512C112.001 274.01 117.425 280.138 124.128 280.197L221.026 281.025C221.626 282.284 222.753 283.429 224.525 284.382C235.636 284.619 240.967 279.152 242.914 272.969C243.548 271.31 243.892 269.475 243.878 267.543C243.492 264.311 242.309 17.9326 241.609 14.793Z" fill="#4D4D4D"/>
<path d="M223.491 284.423L112.264 283.71C105.324 283.666 99.7078 277.372 99.7227 269.656L100.142 13.8918C100.153 6.45281 105.68 0.409986 112.487 0.387824L221.548 0.0369261C228.411 0.0147641 234.02 6.0502 234.075 13.5225L236.051 270.468C236.114 278.217 230.487 284.471 223.491 284.423Z" fill="#4D4D4D"/>
<path d="M225.026 282.565C224.562 282.628 224.092 282.657 223.621 282.654L112.428 281.815C106.463 281.771 101.587 276.253 101.599 269.519L101.984 14.0359C101.995 7.54245 106.792 2.24205 112.643 2.2162L221.7 1.74341C221.871 1.74341 222.042 1.7471 222.212 1.75449C224.955 1.88007 227.521 3.12853 229.438 5.25977C231.395 7.43903 232.485 10.3238 232.511 13.3932L234.461 270.601C234.509 276.692 230.465 281.837 225.026 282.565Z" fill="#0D0D0D"/>
<path d="M228.685 14.6823L230.25 270.993L105.298 270.247L105.617 14.6823H228.685Z" fill="white"/>
<path d="M143.387 68.3143L157.193 68.1998L201.562 13.7737L187.693 13.8882L143.387 68.3143Z" fill="#F13005"/>
<path d="M157.193 68.1997L170.988 68.0889L215.428 13.6628L201.562 13.7737L157.193 68.1997Z" fill="#F1E3E0"/>
<path d="M170.988 68.0889L184.794 67.9781L229.286 13.5483L215.428 13.6628L170.988 68.0889Z" fill="#F13005"/>
<path d="M129.592 68.4251L143.387 68.3143L187.693 13.8882L173.839 14.0027L129.592 68.4251Z" fill="#F1E3E0"/>
<path d="M101.995 68.6504L115.79 68.5396L159.97 14.1135L146.116 14.228L101.995 68.6504Z" fill="#F1E3E0"/>
<path d="M61.9489 68.9754L74.3943 68.8756L118.393 14.4532L105.903 14.5567L61.9489 68.9754Z" fill="#F13005"/>
<path d="M74.3943 68.8757L88.1892 68.7649L132.251 14.3425L118.393 14.4533L74.3943 68.8757Z" fill="#F1E3E0"/>
<path d="M115.79 68.5396L129.592 68.4251L173.839 14.0027L159.97 14.1135L115.79 68.5396Z" fill="#F13005"/>
<path d="M88.1892 68.7649L101.995 68.6504L146.116 14.228L132.251 14.3425L88.1892 68.7649Z" fill="#F13005"/>
<path d="M170.988 68.089L170.984 76.3738C170.981 85.1537 184.765 85.0429 184.779 76.263L184.794 67.9781L170.988 68.089Z" fill="#D62B04"/>
<path d="M157.193 68.1997L157.197 76.4846C157.201 85.2644 170.977 85.1499 170.984 76.3737L170.988 68.0889L157.193 68.1997Z" fill="#F1C5BC"/>
<path d="M143.387 68.3142L143.402 76.5991C143.417 85.3789 157.201 85.2644 157.197 76.4882L157.193 68.2034L143.387 68.3142Z" fill="#D62B04"/>
<path d="M129.592 68.425L129.615 76.7099C129.641 85.4897 143.413 85.3752 143.402 76.5991L143.387 68.3142L129.592 68.425Z" fill="#F1C5BC"/>
<path d="M115.79 68.5395L115.823 76.8244C115.857 85.6042 129.644 85.4897 129.618 76.7136L129.596 68.4287L115.79 68.5395Z" fill="#D62B04"/>
<path d="M101.995 68.6504L102.036 76.9352C102.08 85.7151 115.857 85.6006 115.82 76.8244L115.786 68.5396L101.995 68.6504Z" fill="#F1C5BC"/>
<path d="M88.1892 68.7649L88.2411 77.0497C88.2967 85.8296 102.081 85.7151 102.036 76.9389L101.995 68.6541L88.1892 68.7649Z" fill="#D62B04"/>
<path d="M74.3943 68.8757L74.4536 77.1606C74.5167 85.9404 88.293 85.8259 88.2374 77.0498L88.1855 68.7649L74.3943 68.8757Z" fill="#F1C5BC"/>
<path d="M61.9489 68.9755L62.0193 77.2603C62.0935 86.0365 74.5204 85.9367 74.4574 77.1606L74.398 68.8757L61.9489 68.9755Z" fill="#D62B04"/>
<path d="M184.794 67.9781L183.712 68.1259L229.345 67.7233L229.286 13.5483L184.794 67.9781Z" fill="#F1E3E0"/>
<path d="M221.964 195.184L112.683 195.077V193.636L221.964 193.751V195.184Z" fill="#0776ED"/>
<path d="M221.964 235.441L112.683 235.33V233.89L221.964 234.004V235.441Z" fill="#0776ED"/>
<path d="M221.964 154.011L112.683 153.874V152.688L221.964 152.829V154.011Z" fill="#04F2F5"/>
<path d="M212.202 101.797L122.63 101.273C119.405 101.254 116.78 98.5763 116.78 95.3C116.78 92.0238 119.405 89.3791 122.63 89.4013L212.202 89.9886C215.391 90.0107 217.986 92.6738 217.986 95.928C217.982 99.1821 215.391 101.816 212.202 101.797ZM122.63 89.7965C119.62 89.778 117.169 92.2491 117.169 95.3037C117.169 98.3621 119.62 100.863 122.63 100.881L212.202 101.406C215.179 101.424 217.6 98.9641 217.6 95.928C217.6 92.8918 215.179 90.4022 212.202 90.3838L122.63 89.7965Z" fill="#0776ED"/>
<path d="M212.202 90.1843L202.882 90.1252V101.55L212.202 101.605C215.291 101.624 217.793 99.0824 217.793 95.9317C217.793 92.7773 215.291 90.2065 212.202 90.1843Z" fill="#0776ED"/>
<path d="M208.751 97.5274C207.976 97.5237 207.249 97.2097 206.701 96.6483C205.57 95.4885 205.57 93.6121 206.701 92.467C207.249 91.913 207.976 91.6101 208.751 91.6138C209.526 91.6175 210.252 91.9315 210.801 92.4929C211.932 93.6527 211.932 95.5291 210.801 96.6741C210.252 97.2319 209.522 97.5347 208.751 97.5274ZM208.751 92.3267C208.165 92.323 207.613 92.552 207.197 92.9731C206.341 93.8411 206.341 95.2668 207.197 96.1459C207.613 96.5707 208.165 96.8108 208.751 96.8145C209.337 96.8182 209.889 96.5892 210.304 96.1681C211.161 95.3001 211.161 93.8743 210.304 92.9952C209.889 92.5705 209.337 92.3304 208.751 92.3267Z" fill="white"/>
<path d="M212.499 98.9457L210.304 96.6741L210.797 96.1718L212.992 98.4434L212.499 98.9457Z" fill="white"/>
<path d="M213.478 99.448C213.233 99.6955 212.833 99.6955 212.588 99.4444L210.749 97.5569L211.639 96.6556L213.478 98.5431C213.726 98.7943 213.726 99.2006 213.478 99.448Z" fill="white"/>
<path d="M147.432 147.565L116.784 147.421V116.232L147.432 116.413V147.565Z" fill="#0776ED"/>
<path d="M183.107 147.731L152.537 147.587V116.443L183.107 116.62V147.731Z" fill="#0776ED"/>
<path d="M217.897 147.894L187.4 147.75V116.646L217.897 116.823V147.894Z" fill="#0776ED"/>
<path d="M147.432 189.385L116.784 189.285V158.1L147.432 158.233V189.385Z" fill="#0776ED"/>
<path d="M183.107 189.499L152.537 189.4V158.255L183.107 158.388V189.499Z" fill="#0776ED"/>
<path d="M217.897 189.61L187.4 189.514V158.406L217.897 158.536V189.61Z" fill="#0776ED"/>
<path d="M147.432 230.477L116.784 230.425V199.236L147.432 199.325V230.477Z" fill="#0776ED"/>
<path d="M183.107 230.54L152.537 230.484V199.339L183.107 199.424V230.54Z" fill="#0776ED"/>
<path d="M217.897 230.599L187.4 230.547V199.439L217.897 199.524V230.599Z" fill="#0776ED"/>
<path d="M140.507 139.846L139.825 139.639C139.839 139.587 141.022 134.427 141.118 132.462C141.233 130.098 140.507 128.004 139.016 126.404C137.315 124.576 134.723 123.52 131.902 123.505C129.148 123.49 126.749 124.421 125.151 126.131C123.683 127.701 122.979 129.858 123.116 132.366C123.223 134.349 124.221 139.336 124.232 139.388L123.535 139.528C123.494 139.321 122.519 134.438 122.408 132.403C122.259 129.692 123.03 127.35 124.636 125.629C126.371 123.774 128.951 122.762 131.906 122.777C134.916 122.796 137.697 123.933 139.535 125.906C141.163 127.653 141.956 129.932 141.834 132.499C141.73 134.549 140.566 139.639 140.507 139.846Z" fill="#03ABB0"/>
<path d="M123.575 136.159L124.506 141.208C124.606 141.755 125.092 142.128 125.622 142.095L124.313 134.929C123.802 135.084 123.475 135.613 123.575 136.159Z" fill="#03ABB0"/>
<path d="M125.752 142.08L127.754 141.707L126.43 134.53L124.428 134.903C124.391 134.911 124.354 134.918 124.317 134.929L125.626 142.095C125.666 142.091 125.707 142.088 125.752 142.08Z" fill="#03ABB0"/>
<path d="M128.284 142.416C127.672 142.531 127.083 142.117 126.968 141.497L125.774 135.014C125.659 134.39 126.063 133.795 126.675 133.681C127.286 133.566 127.876 133.98 127.991 134.601L129.185 141.083C129.296 141.703 128.895 142.302 128.284 142.416Z" fill="white"/>
<path d="M140.54 136.318L139.487 141.327C139.372 141.87 138.879 142.224 138.349 142.173L139.836 135.059C140.344 135.236 140.655 135.775 140.54 136.318Z" fill="#03ABB0"/>
<path d="M138.223 142.154L136.232 141.711L137.73 134.586L139.721 135.029C139.758 135.036 139.795 135.048 139.832 135.059L138.345 142.173C138.305 142.173 138.264 142.165 138.223 142.154Z" fill="#03ABB0"/>
<path d="M135.684 142.402C136.292 142.538 136.888 142.147 137.018 141.526L138.371 135.092C138.501 134.475 138.116 133.862 137.508 133.729C136.9 133.592 136.303 133.984 136.173 134.601L134.82 141.039C134.686 141.655 135.076 142.265 135.684 142.402Z" fill="white"/>
<path d="M171.689 127.564L170.97 128.868L157.846 128.798V140.233L177.806 140.333V129.042L177.016 127.594L171.689 127.564Z" fill="white"/>
<path d="M170.132 129.441L165.527 129.415V127.531L170.132 127.553V129.441Z" fill="white"/>
<path d="M163.993 129.407L159.392 129.381V127.498L163.993 127.52V129.407Z" fill="white"/>
<path d="M177.806 138.117L157.846 138.017V131.417L177.806 131.52V138.117Z" fill="#073B73"/>
<path d="M176.419 134.811C176.419 137.386 174.373 139.458 171.845 139.447C169.316 139.436 167.27 137.338 167.27 134.763C167.27 132.189 169.32 130.113 171.845 130.128C174.373 130.142 176.419 132.24 176.419 134.811Z" fill="#073B73"/>
<path d="M175.392 134.807C175.392 136.802 173.806 138.412 171.845 138.401C169.887 138.39 168.297 136.765 168.297 134.77C168.297 132.776 169.883 131.165 171.845 131.177C173.802 131.188 175.392 132.813 175.392 134.807Z" fill="white"/>
<path d="M173.543 134.796C173.543 135.749 172.783 136.521 171.845 136.514C170.907 136.51 170.147 135.731 170.147 134.778C170.147 133.825 170.907 133.053 171.845 133.06C172.783 133.064 173.543 133.843 173.543 134.796Z" fill="#4489C8"/>
<path d="M143.977 223.972C143.821 220.836 136.777 218.86 136.777 218.86C136.777 218.86 130.33 211.791 127.631 208.248C123.042 210.032 121.948 212.241 122.63 216.09C124.866 214.199 128.684 217.678 133.322 223.954L143.977 223.972Z" fill="#073B73"/>
<path d="M122.63 216.09L124.161 224.271H124.899C125.103 220.589 125.563 216.419 128.009 217.752C128.009 214.469 122.63 214.457 122.63 216.09Z" fill="#03ABB0"/>
<path d="M134.182 163.005C134.041 162.599 133.956 162.17 133.915 161.738H133.574C133.563 162.129 133.478 162.539 133.418 162.757C133.177 163.655 132.503 164.327 131.702 164.368C130.901 164.32 130.226 163.64 129.985 162.743C129.926 162.521 129.841 162.111 129.83 161.723H129.489C129.448 162.155 129.363 162.584 129.222 162.99C128.877 163.991 128.284 164.83 127.583 165.524L128.128 170.636L131.55 170.651H131.85L135.272 170.665L135.817 165.557C135.12 164.855 134.527 164.01 134.182 163.005Z" fill="white"/>
<path d="M139.665 184.059C138.141 185.61 125.629 185.724 123.735 184.003C124.588 179.168 125.707 174.496 128.128 170.632L135.276 170.658C137.441 174.012 138.675 178.836 139.665 184.059Z" fill="white"/>
<path d="M132.325 171.873C129.429 171.862 128.061 170.629 128.002 170.577C127.957 170.536 127.954 170.47 127.995 170.425C128.035 170.381 128.102 170.377 128.147 170.418C128.161 170.429 129.518 171.648 132.325 171.659H132.328C134.827 171.667 135.172 170.643 135.176 170.632C135.194 170.577 135.253 170.544 135.309 170.562C135.365 170.581 135.398 170.64 135.38 170.695C135.365 170.743 135.009 171.884 132.328 171.873C132.325 171.873 132.325 171.873 132.325 171.873Z" fill="#4489C8"/>
<path d="M132.028 173.835C131.961 173.835 131.88 173.805 131.795 173.702C131.272 173.052 132.577 171.822 132.725 171.685L132.959 171.471L132.903 171.785C132.821 172.235 132.521 173.713 132.087 173.824C132.073 173.831 132.054 173.835 132.028 173.835ZM132.629 172.091C132.225 172.523 131.691 173.225 131.965 173.565C131.987 173.591 132.017 173.624 132.039 173.617C132.217 173.569 132.462 172.845 132.629 172.091Z" fill="#4489C8"/>
<path d="M132.688 172.028L132.695 171.763C132.695 171.696 132.74 170.171 133.326 169.661C133.481 169.524 133.663 169.469 133.867 169.498C134.097 169.532 134.182 169.65 134.215 169.746C134.397 170.304 133.133 171.593 132.877 171.844L132.688 172.028ZM133.771 169.705C133.659 169.705 133.559 169.742 133.467 169.823C133.088 170.152 132.966 171.028 132.925 171.482C133.459 170.92 134.108 170.104 134.012 169.809C134.004 169.79 133.986 169.727 133.837 169.705C133.815 169.709 133.793 169.705 133.771 169.705Z" fill="#4489C8"/>
<path d="M134.827 173.613C134.786 173.613 134.749 173.591 134.731 173.55C134.101 172.239 132.788 171.873 132.773 171.87C132.718 171.855 132.681 171.796 132.695 171.737C132.71 171.678 132.77 171.644 132.825 171.659C132.885 171.674 134.249 172.054 134.92 173.458C134.946 173.513 134.924 173.576 134.872 173.602C134.857 173.609 134.842 173.613 134.827 173.613Z" fill="#4489C8"/>
<path d="M164.3 166.37C164.3 166.37 166.45 167.09 169.598 166.281C171.615 168.763 168.063 169.949 165.842 169.41C163.629 168.87 164.3 166.37 164.3 166.37Z" fill="white"/>
<path d="M169.602 166.281C169.427 166.957 169.079 167.548 168.434 167.929C166.925 168.815 164.975 167.866 164.304 166.37C163.11 166.525 162.061 166.758 161.312 167.035V184.162L173.183 184.203V167.083C172.119 166.665 170.881 166.41 169.602 166.281Z" fill="#073B73"/>
<path d="M161.308 167.031L156.192 171.046L159.559 175.534L164.567 171.751L161.308 167.031Z" fill="#073B73"/>
<path d="M173.22 167.079L178.336 171.131L174.974 175.593L169.965 171.774L173.22 167.079Z" fill="#073B73"/>
<path d="M191.297 181.41H191.06V182.43C191.06 182.43 203.839 183.357 208.869 182.493C213.897 181.628 214.241 179.944 214.241 179.944V178.895H214.067L191.297 181.41Z" fill="#073B73"/>
<path d="M214.041 179.39C212.725 181.126 208.729 181.647 203.731 181.709C201.674 181.739 199.446 181.691 197.162 181.617C195.219 181.551 193.239 181.473 191.293 181.41C191.1 179.955 191.608 177.247 192.009 175.755C192.138 175.271 192.257 174.913 192.335 174.769L192.409 174.743C193.076 175.663 194.708 176.221 195.675 176.202C197.258 176.169 199.041 175.072 198.53 173.742C198.445 173.558 198.381 173.399 198.337 173.247C197.933 171.925 199.045 171.921 200.71 172.952C203.664 174.828 206.289 175.504 208.41 175.844C208.847 175.914 209.266 175.969 209.659 176.021C212.636 176.409 214.308 176.424 214.041 179.39Z" fill="white"/>
<path d="M213.874 179.39C212.558 181.126 208.562 181.647 203.564 181.709C203.42 180.978 203.294 179.054 205.867 178.585C207.82 178.23 208.929 176.956 209.492 176.025C212.469 176.409 214.141 176.424 213.874 179.39Z" fill="#073B73"/>
<path d="M196.999 181.617C195.056 181.551 193.076 181.473 191.13 181.41C190.937 179.955 191.445 177.247 191.846 175.755C193.499 176.346 196.443 177.898 196.999 181.617Z" fill="#073B73"/>
<path d="M208.41 175.848C208.032 176.446 207.446 176.464 206.886 176.461C201.833 176.106 199.271 174.104 198.337 173.247C197.933 171.925 199.045 171.921 200.71 172.952C203.664 174.832 206.293 175.508 208.41 175.848Z" fill="#073B73"/>
<path d="M202.408 181.901C199.816 181.894 197.221 181.746 195.101 181.628C193.236 181.525 191.764 181.44 191.163 181.514L191.067 181.525L191.045 181.325L191.141 181.314C191.76 181.24 193.239 181.325 195.112 181.429C201.047 181.761 212.087 182.385 213.986 178.847L214.034 178.758L214.204 178.854L214.156 178.943C212.847 181.381 207.631 181.92 202.408 181.901Z" fill="#D4E7F7"/>
<path d="M206.141 142.549L199.716 142.52V122.604L206.141 122.64V142.549Z" fill="#073B73"/>
<path d="M208.336 132.307C208.336 135.505 205.792 138.084 202.656 138.069C199.52 138.054 196.973 135.446 196.973 132.248C196.973 129.049 199.516 126.471 202.656 126.486C205.792 126.504 208.336 129.112 208.336 132.307Z" fill="white"/>
<path d="M207.227 132.303C207.227 134.878 205.181 136.953 202.656 136.942C200.131 136.931 198.081 134.829 198.081 132.255C198.081 129.681 200.128 127.605 202.656 127.616C205.181 127.631 207.227 129.729 207.227 132.303Z" fill="#073B73"/>
<path d="M198.026 129.688L197.295 129.163L198.163 127.911L198.889 128.436L198.026 129.688Z" fill="white"/>
<path d="M197.359 132.221L196.477 132.337L196.679 133.861L197.561 133.745L197.359 132.221Z" fill="white"/>
<path d="M207.249 129.706L207.983 129.2L207.134 127.926L206.4 128.432L207.249 129.706Z" fill="white"/>
<path d="M207.731 133.877L208.614 134.002L208.814 132.48L207.932 132.355L207.731 133.877Z" fill="white"/>
<path d="M202.667 132.528L200.435 131.343C200.332 131.287 200.291 131.154 200.343 131.051C200.398 130.944 200.524 130.903 200.628 130.959L202.641 132.026L205.477 130.187C205.577 130.124 205.707 130.153 205.77 130.253C205.833 130.353 205.804 130.49 205.707 130.552L202.667 132.528Z" fill="white"/>
<path d="M156.834 219.751C157.898 220.083 159.425 220.349 161.168 220.541C164.033 220.855 167.492 220.969 170.454 220.851C173.383 220.737 175.826 220.393 176.746 219.795C176.746 219.795 178.699 207.99 167.185 207.698C167.055 207.694 166.925 207.694 166.792 207.691C154.832 207.657 156.834 219.751 156.834 219.751Z" fill="#073B73"/>
<path d="M161.168 220.537C164.033 220.851 167.492 220.966 170.454 220.848C172.082 210.125 167.433 207.809 167.185 207.694C167.177 207.691 167.173 207.691 167.173 207.691H166.792C160.726 211.126 161.023 218.827 161.168 220.537Z" fill="white"/>
<path d="M175.504 220.242C175.504 220.242 172.245 225.749 157.13 224.475C150.657 223.928 156.834 219.751 156.834 219.751C160.908 220.748 168.753 221.221 175.504 220.242Z" fill="#073B73"/>
<path d="M199.027 210.997L205.993 211.015C209.956 211.026 213.266 214.277 213.24 218.317C213.229 219.932 212.725 221.357 211.509 222.107L193.147 222.07C191.986 221.52 191.542 219.603 191.849 217.309C192.335 213.671 195.427 210.989 199.027 210.997Z" fill="#073B73"/>
<path d="M200.079 211.189L200.083 211.126C200.198 209.759 201.355 208.688 202.723 208.692C204.091 208.695 205.247 209.77 205.362 211.137L205.366 211.2L206.263 211.203L206.252 211.063C206.1 209.227 204.547 207.783 202.719 207.779C200.891 207.776 199.338 209.209 199.186 211.045L199.175 211.185L200.079 211.189Z" fill="#073B73"/>
<path d="M201.881 222.085L200.161 222.081V215.215L201.881 215.218V222.085Z" fill="white"/>
<path d="M205.292 222.092L203.572 222.089V215.222L205.292 215.226V222.092Z" fill="white"/>
<path d="M230.25 257.322H105.298V270.993H230.25V257.322Z" fill="#0776ED"/>
<path d="M173.865 268.296H166.336V262.878L170.098 260.019L173.865 262.878V268.296Z" fill="white"/>
<path d="M129.285 261.685H119.957V266.634H129.285V261.685Z" fill="white"/>
<path d="M221.263 261.685H211.935V266.634H221.263V261.685Z" fill="white"/>
<path d="M252.312 280.862H123.182V290.931H252.312V280.862Z" fill="#0D0D0D"/>
<path d="M214.189 280.862H66.8092V290.931H214.189V280.862Z" fill="#4D4D4D"/>
<path d="M206.234 290.931H37.1693V301H206.234V290.931Z" fill="#4D4D4D"/>
<path d="M252.308 290.931H193.032V301H252.308V290.931Z" fill="#0D0D0D"/>
<path d="M121.006 185.784C117.777 195.214 119.764 215.218 115.16 228.405C108.012 248.868 111.564 257.888 108.301 273.671L115.827 274.239C122.819 243.257 138.475 199.384 140.407 189.407C142.338 179.427 124.039 178.09 121.006 185.784Z" fill="#014A91"/>
<path d="M132.87 197.319C133.181 200.994 138.204 222.129 135.316 232.22C130.753 248.158 133.133 275.994 133.133 275.994L139.194 275.953C145.096 250.112 153.149 212.437 152.507 188.635C151.618 178.629 130.983 175.131 132.87 197.319Z" fill="#014A91"/>
<path d="M136.425 201.134C145.305 201.134 152.504 195.687 152.504 188.968C152.504 182.248 145.305 176.801 136.425 176.801C127.545 176.801 120.346 182.248 120.346 188.968C120.346 195.687 127.545 201.134 136.425 201.134Z" fill="#014A91"/>
<path d="M141.578 288.907C140.94 288.552 139.602 288.231 139.602 288.231L138.297 282.498L145.07 251.224L132.158 250.009L132.191 280.349L131.242 283.854C131.242 283.854 135.646 290.396 136.659 290.396C137.667 290.396 141.571 290.473 142.186 290.473C142.194 290.085 142.134 289.214 141.578 288.907Z" fill="#A64B30"/>
<path d="M131.242 283.854L132.162 290.787H132.577L135.65 283.581L131.242 283.854Z" fill="#A64B30"/>
<path d="M116.68 288.907C116.064 288.552 114.745 288.231 114.745 288.231L113.796 282.498L122.426 249.813L110.466 248.495L107.823 280.349L106.533 283.581C106.533 283.581 110.659 290.396 111.668 290.396C112.676 290.396 116.572 290.473 117.191 290.473C117.221 290.085 117.217 289.214 116.68 288.907Z" fill="#A64B30"/>
<path d="M106.533 283.581L107.145 290.787H107.564L111.078 283.581H106.533Z" fill="#A64B30"/>
<path d="M127.223 173.617C123.19 178.422 121.251 183.265 120.51 187.867C120.51 187.867 125.748 191.863 135.168 191.9C139.914 191.919 149.986 190.711 152.455 187.956C152.151 185.418 151.288 179.649 148.607 172.136C146.171 165.317 130.782 164.663 127.223 173.617Z" fill="#014A91"/>
<path d="M132.821 190.597C133.771 187.435 133.956 183.675 133.956 183.675L124.272 182.836C123.935 185.274 123.635 187.549 123.575 189.503L127.705 192.602L132.821 190.597Z" fill="#0D64B8"/>
<path d="M147.054 191.199C147.832 187.989 147.818 184.225 147.818 184.225L138.104 183.904C137.897 186.356 137.719 188.646 137.767 190.6L142.056 193.478L147.054 191.199Z" fill="#0D64B8"/>
<path d="M129.93 143.502C129.93 143.502 121.577 137.375 104.987 164.748C102.881 168.224 95.7076 184.868 95.7076 184.868L100.012 187.671L112.88 169.506C112.884 169.502 138.664 148.005 129.93 143.502Z" fill="#F7A58E"/>
<path d="M92.3785 197.315C92.3599 197.312 92.3377 197.301 92.3229 197.286C92.2747 197.241 92.2747 197.168 92.3192 197.12C92.3637 197.072 96.9162 192.329 96.7086 189.618C96.6678 189.097 96.4491 188.68 96.0524 188.38C93.3387 186.327 86.3912 193.496 86.3207 193.57C86.2763 193.618 86.2021 193.618 86.1539 193.574C86.1057 193.529 86.1057 193.455 86.1502 193.407C86.4431 193.105 93.3127 186.013 96.1933 188.196C96.6456 188.535 96.8977 189.008 96.9422 189.603C97.1609 192.421 92.6788 197.09 92.4897 197.286C92.46 197.315 92.4156 197.326 92.3785 197.315Z" fill="#103558"/>
<path d="M90.0281 195.701C90.0021 195.694 89.9761 195.679 89.9576 195.653C89.9205 195.601 89.9317 195.528 89.9873 195.491C90.0466 195.45 95.804 191.405 95.8522 188.945C95.8596 188.499 95.6817 188.144 95.3035 187.856C92.575 185.791 84.0407 191.904 83.9555 191.967C83.9036 192.004 83.8294 191.993 83.7887 191.941C83.7516 191.889 83.7627 191.815 83.8146 191.775C84.1705 191.516 92.5787 185.496 95.4444 187.667C95.8819 188 96.0969 188.428 96.0895 188.949C96.0376 191.527 90.3617 195.513 90.1207 195.683C90.0948 195.701 90.0577 195.709 90.0281 195.701Z" fill="#103558"/>
<path d="M78.8616 188.074L54.5306 216.858L62.9684 222.425L83.2956 190.999L78.8616 188.074Z" fill="#F05B5B"/>
<path d="M84.3336 191.686L62.9276 222.399L76.7818 231.541L95.5779 199.103L84.3336 191.686Z" fill="#E54547"/>
<path d="M82.1352 190.234L62.2714 215.492L62.9684 222.425L84.3707 191.708L82.1352 190.234Z" fill="#F1696A"/>
<path d="M62.2714 215.492L54.4861 216.829L62.9276 222.399L62.2714 215.492Z" fill="#F05B5B"/>
<path d="M87.6961 194.475L67.3393 227.097L76.6817 231.493L92.6046 196.783L87.6961 194.475Z" fill="#0776ED"/>
<path d="M93.7502 197.323L76.6335 231.471L91.9744 238.688L106.199 203.181L93.7502 197.323Z" fill="#0776ED"/>
<path d="M91.3182 196.178L74.9578 224.589L76.6817 231.493L93.791 197.341L91.3182 196.178Z" fill="#073B73"/>
<path d="M74.9578 224.589L67.2911 227.075L76.6335 231.471L74.9578 224.589Z" fill="#065CB8"/>
<path d="M100.197 187.379L98.6475 190.098C98.6475 190.098 99.9785 191.417 99.3964 192.288C97.7429 194.124 93.6315 193.478 92.7789 192.735C91.9262 191.993 91.1032 190.068 91.7556 188.62C92.4118 187.173 95.7076 184.868 95.7076 184.868C95.7076 184.868 99.7486 185.739 100.197 187.379Z" fill="#F7A58E"/>
<path d="M140.095 150.18L128.28 150.542L130.731 130.763L140.184 130.471L140.095 150.18Z" fill="#F7A58E"/>
<path d="M146.605 122.969C147.588 130.885 145.919 136.835 140.136 137.434C134.353 138.032 126.293 131.217 125.659 125.141C125.025 119.061 129.199 113.65 134.983 113.048C140.766 112.446 145.853 116.904 146.605 122.969Z" fill="#F7A58E"/>
<path d="M144.715 124.827C144.941 125.994 144.173 127.121 143.002 127.346C141.83 127.572 140.7 126.807 140.473 125.64C140.247 124.473 141.015 123.346 142.186 123.121C143.358 122.895 144.488 123.66 144.715 124.827Z" fill="#F7A58E"/>
<path d="M149.916 156.571C149.864 158.79 149.69 175.109 149.69 175.109C149.69 175.109 135.962 174.256 126.83 174.097C122.656 156.703 117.521 148.441 127.768 142.657C142.26 137.231 149.975 148.829 149.916 156.571Z" fill="#0386C2"/>
<path d="M142.42 141.692C131.802 145.179 127.768 142.656 127.768 142.656C130.056 140.891 138.583 139.624 142.42 141.692Z" fill="#F7A58E"/>
<path d="M102.981 202.106C102.937 202.095 102.9 202.058 102.892 202.01C102.878 201.929 101.406 193.695 98.5771 190.102C98.5363 190.05 98.5474 189.976 98.5956 189.935C98.6475 189.895 98.7217 189.906 98.7625 189.954C101.628 193.596 103.111 201.884 103.126 201.966C103.137 202.028 103.093 202.091 103.03 202.102C103.011 202.11 102.996 202.106 102.981 202.106Z" fill="#103558"/>
<path d="M95.9338 198.826C95.9152 198.822 95.8967 198.811 95.8782 198.796C95.83 198.752 91.244 194.357 91.4109 189.577C91.4146 189.511 91.4665 189.463 91.5332 189.463C91.5999 189.466 91.6481 189.518 91.6481 189.584C91.485 194.261 95.9968 198.582 96.0413 198.626C96.0895 198.671 96.0895 198.745 96.045 198.793C96.0153 198.822 95.9708 198.837 95.9338 198.826Z" fill="#103558"/>
<path d="M190.214 136.03C192.075 134.043 193.28 132.196 192.917 131.856C192.557 131.513 190.767 132.802 188.865 134.756C187.556 136.122 189.21 136.898 190.214 136.03Z" fill="#F7A58E"/>
<path d="M189.506 134.135L184.95 137.796C183.523 138.73 181.476 140.078 179.233 141.552C174.855 144.429 169.598 147.015 167.029 148.703C167.029 148.703 158.509 145.611 150.164 143.51C143.491 141.829 136.851 141.633 135.706 144.666C133.352 150.901 140.685 154.14 152.511 156.098C152.511 156.094 152.515 156.09 152.515 156.087C158.517 157.114 165.676 157.952 167.826 156.704C171.785 154.406 177.439 150.79 182.473 145.556C184.094 143.872 185.539 142.309 186.674 141.046C186.87 141.127 187.071 141.186 187.271 141.216C187.271 141.216 190.841 140.895 191.508 138.852C192.075 136.632 189.688 134.313 189.506 134.135Z" fill="#F7A58E"/>
<path d="M153.382 143.739C153.382 143.739 154.617 146.103 153.697 151.052C153.367 152.829 152.585 154.694 151.162 156.386C145.119 155.507 133.478 152.596 134.712 144.969C135.943 137.341 153.382 143.739 153.382 143.739Z" fill="#0386C2"/>
<path d="M129.681 141.227C129.681 141.227 121.084 142.575 114.578 151.093C118.411 157.328 124.117 160.268 124.117 160.268C124.117 160.268 133.93 153.346 134.905 147.588C135.88 141.829 129.681 141.227 129.681 141.227Z" fill="#0386C2"/>
<path d="M149.211 118.267C149.297 113.388 145.567 112.184 145.567 112.184C147.202 106.617 139.769 103.057 132.721 106.629C132.721 106.629 129.87 104.989 125.032 107.94C118.433 111.814 119.112 119.963 119.112 119.963C111.482 122.157 108.476 128.986 110.696 135.11C110.696 135.11 101.802 138.486 103.326 147.477C104.85 156.467 112.353 157.379 112.353 157.379C112.353 157.379 114.418 170.769 124.617 169.676C134.812 168.582 135.287 160.301 135.287 160.301C135.287 160.301 143.628 163.212 147.273 154.029C150.917 144.851 142.086 139.764 142.086 139.764C142.086 139.764 147.439 137.371 147.354 131.601C147.299 127.893 145.219 125.61 143.736 124.447C147.117 122.615 149.163 120.975 149.211 118.267Z" fill="#0D0D0D"/>
<path d="M257.735 155.474L259.089 159.732H263.474L259.927 162.366L261.283 166.621L257.735 163.991L254.191 166.621L255.544 162.366L251.997 159.732H256.382L257.735 155.474Z" fill="#DE7F04"/>
<path d="M273.458 155.474L274.811 159.732H279.193L275.649 162.366L277.002 166.621L273.458 163.991L269.91 166.621L271.263 162.366L267.719 159.732H272.101L273.458 155.474Z" fill="#DE7F04"/>
<path d="M289.177 155.474L290.534 159.732H294.916L291.368 162.366L292.725 166.621L289.177 163.991L285.633 166.621L286.986 162.366L283.438 159.732H287.824L289.177 155.474Z" fill="#DE7F04"/>
<path d="M304.9 155.474L306.253 159.732H310.635L307.091 162.366L308.444 166.621L304.9 163.991L301.352 166.621L302.705 162.366L299.161 159.732H303.543L304.9 155.474Z" fill="#DE7F04"/>
<path d="M281.596 124.229C286.729 124.229 290.89 120.075 290.89 114.95C290.89 109.826 286.729 105.672 281.596 105.672C276.463 105.672 272.301 109.826 272.301 114.95C272.301 120.075 276.463 124.229 281.596 124.229Z" fill="#029A65"/>
<path d="M287.772 110.097C285.436 110.821 282.519 113.447 280.869 116.324C280.391 115.157 278.919 114.249 278.204 114.112L276.472 116.439C277.844 116.808 279.494 118.197 279.939 119.804H282.037C282.637 118.005 284.235 113.672 288.332 110.854C288.198 110.544 287.813 110.138 287.772 110.097Z" fill="white"/>
<path d="M289.444 141.279H272.928C272.598 141.279 272.309 141.065 272.209 140.751L269.046 130.855C268.972 130.623 269.013 130.371 269.154 130.176C269.295 129.98 269.525 129.865 269.766 129.865H292.606C292.847 129.865 293.074 129.98 293.218 130.176C293.359 130.371 293.4 130.623 293.326 130.855L290.163 140.751C290.063 141.068 289.77 141.279 289.444 141.279ZM273.48 139.761H288.892L291.568 131.383H270.8L273.48 139.761Z" fill="#0D0D0D"/>
<path d="M288.087 145.471H274.003C273.584 145.471 273.247 145.131 273.247 144.71C273.247 144.289 273.584 143.949 274.003 143.949H287.535C288.454 143.927 288.873 143.284 288.94 142.631C288.999 142.043 288.777 141.449 288.387 141.279L293.144 126.327C293.244 126.013 293.537 125.799 293.863 125.799H298.783C299.202 125.799 299.539 126.138 299.539 126.559C299.539 126.981 299.202 127.32 298.783 127.32H294.416L290.056 141.197C291.212 143.111 289.633 145.471 288.087 145.471Z" fill="#0D0D0D"/>
<path d="M278.622 148.012C278.622 148.976 277.844 149.759 276.884 149.759C275.924 149.759 275.145 148.976 275.145 148.012C275.145 147.048 275.924 146.265 276.884 146.265C277.844 146.265 278.622 147.048 278.622 148.012Z" fill="#0D0D0D"/>
<path d="M287.375 148.012C287.375 148.976 286.597 149.759 285.637 149.759C284.676 149.759 283.898 148.976 283.898 148.012C283.898 147.048 284.676 146.265 285.637 146.265C286.597 146.265 287.375 147.048 287.375 148.012Z" fill="#0D0D0D"/>
<path d="M281.596 141.279C281.177 141.279 280.839 140.939 280.839 140.518V130.623C280.839 130.202 281.177 129.862 281.596 129.862C282.015 129.862 282.352 130.202 282.352 130.623V140.518C282.352 140.939 282.015 141.279 281.596 141.279Z" fill="#0D0D0D"/>
<path d="M277.38 141.279C277.036 141.279 276.724 141.039 276.643 140.688L274.407 130.792C274.315 130.382 274.57 129.976 274.978 129.884C275.386 129.791 275.79 130.046 275.883 130.456L278.118 140.352C278.211 140.762 277.955 141.168 277.547 141.26C277.492 141.275 277.436 141.279 277.38 141.279Z" fill="#0D0D0D"/>
<path d="M285.637 141.279C285.6 141.279 285.563 141.275 285.525 141.271C285.114 141.212 284.825 140.824 284.888 140.411L286.323 130.515C286.382 130.102 286.767 129.814 287.179 129.873C287.59 129.932 287.88 130.32 287.817 130.733L286.382 140.629C286.33 141.009 286.007 141.279 285.637 141.279Z" fill="#0D0D0D"/>
<path d="M291.023 136.396H271.364C270.945 136.396 270.607 136.056 270.607 135.635C270.607 135.214 270.945 134.874 271.364 134.874H291.023C291.442 134.874 291.78 135.214 291.78 135.635C291.78 136.056 291.442 136.396 291.023 136.396Z" fill="#0D0D0D"/>
<path d="M86.925 137.899C81.5346 137.858 70.9021 137.807 51.1792 137.807C48.1132 137.807 45.6256 135.332 45.6256 132.281V122.895C45.6256 119.844 48.1095 117.37 51.1755 117.37H86.3207C89.3867 117.37 91.8706 119.844 91.8706 122.895V133.012C91.8669 135.723 89.6499 137.921 86.925 137.899Z" fill="white"/>
<path d="M55.8689 127.631C55.8689 128.669 55.0237 129.507 53.9856 129.507C52.9439 129.507 52.1023 128.665 52.1023 127.631C52.1023 126.593 52.9476 125.754 53.9856 125.754C55.0237 125.754 55.8689 126.596 55.8689 127.631Z" fill="#B3B3B3"/>
<path d="M65.7081 127.631C65.7081 128.669 64.8628 129.507 63.8248 129.507C62.783 129.507 61.9415 128.665 61.9415 127.631C61.9415 126.593 62.7868 125.754 63.8248 125.754C64.8666 125.754 65.7081 126.596 65.7081 127.631Z" fill="#B3B3B3"/>
<path d="M75.551 127.631C75.551 128.669 74.7058 129.507 73.6677 129.507C72.626 129.507 71.7844 128.665 71.7844 127.631C71.7844 126.593 72.6297 125.754 73.6677 125.754C74.7058 125.754 75.551 126.596 75.551 127.631Z" fill="#B3B3B3"/>
<path d="M85.3902 127.631C85.3902 128.669 84.5449 129.507 83.5069 129.507C82.4651 129.507 81.6236 128.665 81.6236 127.631C81.6236 126.593 82.4688 125.754 83.5069 125.754C84.5486 125.754 85.3902 126.596 85.3902 127.631Z" fill="#B3B3B3"/>
<path d="M72.8447 134.22V142.753L61.9415 134.542L72.8447 134.22Z" fill="white"/>
</g>
<defs>
<filter id="filter0_d_84_120" x="0" y="0" width="351" height="309" filterUnits="userSpaceOnUse" color-interpolation-filters="sRGB">
<feFlood flood-opacity="0" result="BackgroundImageFix"/>
<feColorMatrix in="SourceAlpha" type="matrix" values="0 0 0 0 0 0 0 0 0 0 0 0 0 0 0 0 0 0 127 0" result="hardAlpha"/>
<feOffset dy="4"/>
<feGaussianBlur stdDeviation="2"/>
<feComposite in2="hardAlpha" operator="out"/>
<feColorMatrix type="matrix" values="0 0 0 0 0 0 0 0 0 0 0 0 0 0 0 0 0 0 0.25 0"/>
<feBlend mode="normal" in2="BackgroundImageFix" result="effect1_dropShadow_84_120"/>
<feBlend mode="normal" in="SourceGraphic" in2="effect1_dropShadow_84_120" result="shape"/>
</filter>
<clipPath id="clip0_84_120">
<rect width="343" height="301" fill="white" transform="translate(4)"/>
</clipPath>
</defs>
</svg>
